<svg xmlns="http://www.w3.org/2000/svg" width="500" height="500" viewBox="0 0 500 500" fill="none" transform="matrix(-1, 0, 0, 1, 0, 0)">
<path d="M400 169.078C400.007 138.738 390.815 109.109 373.636 84.1007C356.458 59.0924 332.1 39.8804 303.778 29V146.181C303.778 152.254 301.366 158.078 297.072 162.372C292.778 166.666 286.954 169.078 280.882 169.078H219.126C213.054 169.078 207.23 166.666 202.936 162.372C198.642 158.078 196.23 152.254 196.23 146.181V29.0346C169.379 39.3478 146.06 57.1622 129.049 80.3554C112.039 103.549 102.054 131.143 100.284 159.851C98.5147 188.559 105.035 217.171 119.069 242.278C133.102 267.385 154.057 287.928 179.437 301.461V470.765H320.57V301.461C344.569 288.67 364.637 269.594 378.628 246.275C392.619 222.956 400.007 196.272 400 169.078Z" fill="#ff780c"/>
</svg>