<svg width="500" height="500" viewBox="0 0 500 500" fill="none" xmlns="http://www.w3.org/2000/svg">
<path fill-rule="evenodd" clip-rule="evenodd" d="M140.975 31.949C120.896 31.949 104.633 48.213 104.633 68.289V159.234C104.633 171.958 109.904 183.501 118.35 191.759L157.874 231.279C130.799 256.182 113.72 291.976 113.72 331.771C113.72 407 174.776 468.05 250.002 468.05C325.224 468.05 386.286 407 386.286 331.771C386.286 291.976 369.206 256.182 342.136 231.279L381.651 191.759C390.099 183.501 395.369 171.958 395.369 159.234V68.29C395.369 48.213 379.106 31.95 359.028 31.95H140.975V31.949ZM250.001 259.086C253.182 259.086 255.816 261.093 256.726 263.904L273.267 304.512H315.695C319.508 304.512 322.686 308.605 322.686 312.33C322.686 314.599 321.593 316.597 319.862 317.778L284.16 342.032C284.16 342.032 295.608 385.189 295.979 386.459C296.245 387.097 296.333 387.827 296.333 388.552C296.333 392.37 293.245 395.365 289.341 395.365C287.621 395.365 285.978 394.738 284.797 393.733L250.001 366.567L215.202 393.733C214.023 394.738 212.386 395.365 210.661 395.365C206.756 395.365 203.665 392.37 203.665 388.552C203.665 387.827 203.752 387.097 204.028 386.459C204.391 385.189 216.02 342.221 216.02 342.221L180.134 317.779C178.409 316.597 177.318 314.599 177.318 312.331C177.318 308.605 180.5 304.513 184.313 304.513H226.742L243.277 263.905C244.185 261.093 246.82 259.086 250.001 259.086ZM186.402 95.548V159.144C186.402 169.136 178.228 177.316 168.232 177.316C158.236 177.316 150.062 169.135 150.062 159.144V95.548C150.062 85.556 158.236 77.375 168.232 77.375C178.228 77.375 186.402 85.557 186.402 95.548ZM268.173 95.548V177.317C268.173 187.307 259.992 195.487 250.001 195.487C240.005 195.487 231.831 187.307 231.831 177.317V95.548C231.831 85.556 240.006 77.375 250.001 77.375C259.992 77.375 268.173 85.557 268.173 95.548ZM349.939 95.548V159.144C349.939 169.136 341.758 177.316 331.772 177.316C321.78 177.316 313.599 169.135 313.599 159.144V95.548C313.599 85.556 321.78 77.375 331.772 77.375C341.759 77.375 349.939 85.557 349.939 95.548Z" fill="#FF780C"/>
</svg>
