<svg width="500" height="500" viewBox="0 0 500 500" fill="none" xmlns="http://www.w3.org/2000/svg">
<g clip-path="url(#clip0_332_9)">
<path d="M500 141.699C500 149.709 496.962 157.715 490.885 163.799L163.77 490.918C157.715 496.973 149.707 500 141.699 500C133.691 500 125.674 496.962 119.6 490.885L9.11523 380.371C3.03809 374.316 0 366.309 0 358.301C0 350.293 3.03809 342.285 9.11523 336.201L62.1719 283.145L117.416 338.389C120.454 341.427 124.459 342.951 128.461 342.951C137.309 342.951 144.076 335.803 144.076 327.336C144.076 323.331 142.552 319.325 139.513 316.291L84.2676 261.035L128.457 216.836L183.701 272.08C186.738 275.118 190.744 276.644 194.746 276.644C203.229 276.644 210.361 269.851 210.361 261.028C210.361 257.023 208.836 253.018 205.799 249.983L150.586 194.727L194.775 150.527L250 205.762C253.039 208.8 257.044 210.324 261.045 210.324C269.892 210.324 276.66 203.172 276.66 194.709C276.66 190.703 275.135 186.698 272.097 183.664L216.853 128.42L261.052 84.2305L316.296 139.475C319.334 142.513 323.339 144.037 327.341 144.037C336.188 144.037 342.956 136.889 342.956 128.422C342.956 124.417 341.432 120.411 338.393 117.377L283.148 62.1328L336.205 9.07617C342.282 2.99902 350.297 -0.0390625 358.305 -0.0390625C366.312 -0.0390625 374.32 2.99902 380.404 9.07617L490.854 119.525C496.973 125.684 500 133.691 500 141.699Z" fill="#FF780C"/>
</g>
<defs>
<clipPath id="clip0_332_9">
<rect width="500" height="500" fill="white"/>
</clipPath>
</defs>
</svg>
