<svg width="500" height="500" viewBox="0 0 500 500" fill="none" xmlns="http://www.w3.org/2000/svg">
<g clip-path="url(#clip0_332_4)">
<path d="M500 4.00543e-05V500H-8.2016e-05V4.00543e-05H500ZM510.417 -10.4166H-10.4167V510.417H510.417V-10.4166Z" fill="#DB4437"/>
<path d="M416.667 125H333.333V83.3333C333.333 60.3125 314.688 41.6666 291.667 41.6666H208.333C185.313 41.6666 166.667 60.3125 166.667 83.3333V125H83.3334C60.3126 125 41.8751 143.646 41.8751 166.667L41.6667 395.833C41.6667 418.854 60.3126 437.5 83.3334 437.5H416.667C439.688 437.5 458.333 418.854 458.333 395.833V166.667C458.333 143.646 439.688 125 416.667 125ZM291.667 125H208.333V83.3333H291.667V125Z" fill="#FF780C"/>
</g>
<defs>
<clipPath id="clip0_332_4">
<rect width="500" height="500" fill="white"/>
</clipPath>
</defs>
</svg>
